<svg width="150" height="150" viewBox="0 0 150 150" fill="none" xmlns="http://www.w3.org/2000/svg">
<g clip-path="url(#clip0_1_449)">
<rect width="150" height="150" fill="#2D0F52"/>
<path d="M52.2548 33.2548L38.1127 19.1127M60.7401 24.7696L38.1127 2.14214M43.7696 41.7401L38.1127 36.0833" stroke="white" stroke-width="4" stroke-linecap="round" stroke-linejoin="round"/>
<path d="M52.6274 33.6274L66.7696 47.7696M61.1127 25.1421L83.7401 47.7696M44.1421 42.1127L49.799 47.7696" stroke="white" stroke-width="4" stroke-linecap="round" stroke-linejoin="round"/>
<path d="M97.6274 33.2548L111.77 19.1127M89.1421 24.7696L111.77 2.14214M106.113 41.7401L111.77 36.0833" stroke="white" stroke-width="4" stroke-linecap="round" stroke-linejoin="round"/>
<path d="M91.6274 39.2548L105.77 25.1127M83.1421 30.7696L105.77 8.14214M100.113 47.7401L105.77 42.0833" stroke="white" stroke-width="4" stroke-linecap="round" stroke-linejoin="round"/>
<path d="M136 116V136M148 116V148M124 116V124" stroke="white" stroke-width="4" stroke-linecap="round" stroke-linejoin="round"/>
<path d="M14 48V28M26 48V16M2 48V40" stroke="white" stroke-width="4" stroke-linecap="round" stroke-linejoin="round"/>
<path d="M14 16V36M2 16V48M26 16V24" stroke="white" stroke-width="4" stroke-linecap="round" stroke-linejoin="round"/>
<path d="M14 34V14M26 34V2M2 34V26" stroke="white" stroke-width="4" stroke-linecap="round" stroke-linejoin="round"/>
<path d="M14 2V22M2 2V34M26 2V10" stroke="white" stroke-width="4" stroke-linecap="round" stroke-linejoin="round"/>
<path d="M14 148V128M26 148V116M2 148V140" stroke="white" stroke-width="4" stroke-linecap="round" stroke-linejoin="round"/>
<path d="M14 116V136M2 116V148M26 116V124" stroke="white" stroke-width="4" stroke-linecap="round" stroke-linejoin="round"/>
<path d="M14 116V96M26 116V84M2 116V108" stroke="white" stroke-width="4" stroke-linecap="round" stroke-linejoin="round"/>
<path d="M14 84V104M2 84V116M26 84V92" stroke="white" stroke-width="4" stroke-linecap="round" stroke-linejoin="round"/>
<path d="M14 91V71M26 91V59M2 91V83" stroke="white" stroke-width="4" stroke-linecap="round" stroke-linejoin="round"/>
<path d="M14 59V79M2 59V91M26 59V67" stroke="white" stroke-width="4" stroke-linecap="round" stroke-linejoin="round"/>
<path d="M136 52V32M148 52V20M124 52V44" stroke="white" stroke-width="4" stroke-linecap="round" stroke-linejoin="round"/>
<path d="M136 20V40M124 20V52M148 20V28" stroke="white" stroke-width="4" stroke-linecap="round" stroke-linejoin="round"/>
<path d="M136 34V14M148 34V2M124 34V26" stroke="white" stroke-width="4" stroke-linecap="round" stroke-linejoin="round"/>
<path d="M136 2V22M124 2V34M148 2V10" stroke="white" stroke-width="4" stroke-linecap="round" stroke-linejoin="round"/>
<path d="M136 84V64M148 84V52M124 84V76" stroke="white" stroke-width="4" stroke-linecap="round" stroke-linejoin="round"/>
<path d="M136 52V72M124 52V84M148 52V60" stroke="white" stroke-width="4" stroke-linecap="round" stroke-linejoin="round"/>
<path d="M136 98V78M148 98V66M124 98V90" stroke="white" stroke-width="4" stroke-linecap="round" stroke-linejoin="round"/>
<path d="M136 66V86M124 66V98M148 66V74" stroke="white" stroke-width="4" stroke-linecap="round" stroke-linejoin="round"/>
<path d="M136 119V99M148 119V87M124 119V111" stroke="white" stroke-width="4" stroke-linecap="round" stroke-linejoin="round"/>
<path d="M136 87V107M124 87V119M148 87V95" stroke="white" stroke-width="4" stroke-linecap="round" stroke-linejoin="round"/>
<path d="M51.2548 80.6274L37.1127 94.7696M59.7401 89.1127L37.1127 111.74M42.7696 72.1421L37.1127 77.799" stroke="white" stroke-width="4" stroke-linecap="round" stroke-linejoin="round"/>
<path d="M47.6274 84.2548L61.7696 70.1127M56.1127 92.7401L78.7401 70.1127M39.1421 75.7696L44.799 70.1127" stroke="white" stroke-width="4" stroke-linecap="round" stroke-linejoin="round"/>
<path d="M58.6274 73.2548L72.7696 59.1127M67.1127 81.7401L89.7401 59.1127M50.1421 64.7696L55.799 59.1127" stroke="white" stroke-width="4" stroke-linecap="round" stroke-linejoin="round"/>
<path d="M52.6274 79.2548L66.7696 65.1127M61.1127 87.7401L83.7401 65.1127M44.1421 70.7696L49.799 65.1127" stroke="white" stroke-width="4" stroke-linecap="round" stroke-linejoin="round"/>
<path d="M65.6274 98.6274L79.7696 112.77M74.1127 90.1421L96.7401 112.77M57.1421 107.113L62.799 112.77" stroke="white" stroke-width="4" stroke-linecap="round" stroke-linejoin="round"/>
<path d="M79.6274 112.627L93.7696 126.77M88.1127 104.142L110.74 126.77M71.1421 121.113L76.799 126.77" stroke="white" stroke-width="4" stroke-linecap="round" stroke-linejoin="round"/>
<path d="M88.2548 121.255L74.1127 107.113M79.7696 129.74L57.1421 107.113M96.7401 112.77L91.0833 107.113" stroke="white" stroke-width="4" stroke-linecap="round" stroke-linejoin="round"/>
<path d="M102.255 135.255L88.1127 121.113M93.7696 143.74L71.1421 121.113M110.74 126.77L105.083 121.113" stroke="white" stroke-width="4" stroke-linecap="round" stroke-linejoin="round"/>
<path d="M100.627 133.627L114.77 147.77M109.113 125.142L131.74 147.77M92.1421 142.113L97.799 147.77" stroke="white" stroke-width="4" stroke-linecap="round" stroke-linejoin="round"/>
</g>
<defs>
<clipPath id="clip0_1_449">
<rect width="150" height="150" fill="white"/>
</clipPath>
</defs>
</svg>
